<svg xmlns="http://www.w3.org/2000/svg" viewBox="0 9.470000267028809 84.44999694824219 35.78999710083008" data-asc="0.9052734375" width="84.44999694824219" height="35.78999710083008"><defs/><g fill="#000000"><g transform="translate(0, 0)"><path d="M9.50 45.26L0 9.47L4.86 9.47L10.30 32.93Q11.18 36.62 11.82 40.26Q13.18 34.52 13.43 33.64L20.24 9.47L25.95 9.47L31.08 27.59Q33.01 34.33 33.86 40.26Q34.55 36.87 35.64 32.47L41.26 9.47L46.02 9.47L36.21 45.26L31.64 45.26L24.10 17.99Q23.14 14.58 22.97 13.79Q22.41 16.26 21.92 17.99L14.33 45.26L9.50 45.26ZM50.29 45.26L50.29 9.47L57.42 9.47L65.89 34.81Q67.07 38.35 67.60 40.11Q68.21 38.16 69.51 34.38L78.08 9.47L84.45 9.47L84.45 45.26L79.88 45.26L79.88 15.31L69.48 45.26L65.21 45.26L54.86 14.79L54.86 45.26L50.29 45.26Z"/></g></g></svg>